# xmcd
#
# Track frame offsets:
#  150
#  24488
#  93480
#  109396
#  131068
#  152395
#  187103
#  233384
#
# Disc length: 3571 seconds
#
# Revision: 0
# Processed by: cddbd v1.5.2PL0 Copyright (c) Steve Scherf et al.
# Submitted via: Collectorz.com_Music_Collector 6.11
#
DISCID=5e0df108
DTITLE=Eric Clapton - Revolution (2CDs) [CD2)
DYEAR=2007
DGENRE=Blues
TTITLE0=After Midnight
TTITLE1=Little Queen Of Spades
TTITLE2=Everybody Oughta Make A Change
TTITLE3=Motherless Children
TTITLE4=Wonderful Tonight
TTITLE5=Cocaine
TTITLE6=Layla
TTITLE7=Crossroads
EXTD=
EXTT0=
EXTT1=
EXTT2=
EXTT3=
EXTT4=
EXTT5=
EXTT6=
EXTT7=
PLAYORDER=
